<svg id="visual" viewBox="0 0 960 540" width="960" height="540" xmlns="http://www.w3.org/2000/svg" xmlns:xlink="http://www.w3.org/1999/xlink" version="1.1"><rect x="0" y="0" width="960" height="540" fill="#ffffff"></rect><path d="M0 355L40 341.7C80 328.3 160 301.7 240 292.3C320 283 400 291 480 287.3C560 283.7 640 268.3 720 270C800 271.7 880 290.3 920 299.7L960 309L960 541L920 541C880 541 800 541 720 541C640 541 560 541 480 541C400 541 320 541 240 541C160 541 80 541 40 541L0 541Z" fill="#c9c9c9" stroke-linecap="round" stroke-linejoin="miter"></path></svg>